<svg width="14" height="5" viewBox="0 0 14 5" fill="none" xmlns="http://www.w3.org/2000/svg">
<path d="M7 3.25C7.41421 3.25 7.75 2.91421 7.75 2.5C7.75 2.08579 7.41421 1.75 7 1.75C6.58579 1.75 6.25 2.08579 6.25 2.5C6.25 2.91421 6.58579 3.25 7 3.25Z" stroke="#808191" stroke-width="2" stroke-linecap="round" stroke-linejoin="round"/>
<path d="M12.25 3.25C12.6642 3.25 13 2.91421 13 2.5C13 2.08579 12.6642 1.75 12.25 1.75C11.8358 1.75 11.5 2.08579 11.5 2.5C11.5 2.91421 11.8358 3.25 12.25 3.25Z" stroke="#808191" stroke-width="2" stroke-linecap="round" stroke-linejoin="round"/>
<path d="M1.75 3.25C2.16421 3.25 2.5 2.91421 2.5 2.5C2.5 2.08579 2.16421 1.75 1.75 1.75C1.33579 1.75 1 2.08579 1 2.5C1 2.91421 1.33579 3.25 1.75 3.25Z" stroke="#808191" stroke-width="2" stroke-linecap="round" stroke-linejoin="round"/>
</svg>
